<?xml version="1.0"?><svg width="640" height="480" xmlns="http://www.w3.org/2000/svg">
 <title>Man silhouette Orange</title>
 <g>
  <title>Layer 1</title>
  <g id="svg_3">
   <g id="svg_12">
    <path id="svg_10" fill="#ff0000" d="m256.062225,124.192871c14.424774,0 26.085876,-11.200264 26.085876,-25.129318c0,-13.842712 -11.661102,-25.103043 -26.085876,-25.103043c-14.335449,0 -25.996521,11.26033 -25.996521,25.103043c0.003906,13.929054 11.665009,25.129318 25.996521,25.129318z"/>
    <path id="svg_11" fill="#ff0000" d="m220.869019,367.93457c0,7.79895 6.436981,14.104919 14.514008,14.104919c8.04599,0 14.608002,-6.305969 14.608002,-14.104919l0,-118.204041l12.235992,0l0,118.204041c0,7.79895 6.561005,14.104919 14.608002,14.104919c8.076996,0 14.544983,-6.305969 14.544983,-14.104919l0.08902,-203.801056l12.147003,0l0,75.128998c0,15.130005 20.375977,15.130005 20.375977,0l0,-76.77002c0,-16.68396 -13.453003,-32.988983 -33.677002,-32.988983l-68.994995,-0.085999c-18.494995,0 -33.312012,14.545013 -33.312012,32.610016l0,77.237976c0,14.95401 20.496002,14.95401 20.496002,0l0,-75.131989l12.361023,0l0,203.801056l0.003998,0z"/>
   </g>
  </g>
 </g>
</svg>